<svg width="150" height="40" viewBox="0 0 150 40" fill="none" xmlns="http://www.w3.org/2000/svg">
<mask id="mask0_901_331" style="mask-type:luminance" maskUnits="userSpaceOnUse" x="0" y="0" width="150" height="39">
<path d="M150 0H0V38.5377H150V0Z" fill="white"/>
</mask>
<g mask="url(#mask0_901_331)">
<path d="M138.549 13.7768C138.779 12.4544 139.228 10.1846 137.683 8.10229C135.988 5.83246 132.666 4.92453 128.403 4.92453C125.121 4.92453 120.251 5.49364 116.369 8.55625C112.63 11.5465 110.669 16.1256 109.991 19.4185C109.043 23.7739 109.725 28.0832 112.67 30.6952C115.309 33.0802 119.307 33.5375 122.252 33.5375C126.291 33.5375 130.44 32.9716 134.591 32.0242L137.683 17.4118H124.816L123.724 22.5962H129.495L128.364 27.8958C126.931 28.159 125.495 28.3497 124.094 28.3497C119.536 28.3497 116.592 25.6655 117.949 19.2672C118.894 14.6881 121.76 10.1451 126.928 10.1451C129 10.1451 131.036 10.9445 130.889 13.7801H138.546L138.549 13.7768ZM70.5353 32.929H77.0609L81.7798 9.79971L83.1013 32.929H89.8891L101.209 9.99051L96.0049 32.929H103.134L108.909 5.566L97.0213 5.60219L88.8332 24.1128L88.1937 5.60219H76.3067L70.5353 32.929ZM45.8366 32.929H66.5873L67.7218 27.6293H54.4379L55.6479 21.8002H67.8727L69.004 16.5763H56.776L57.986 10.8984H70.9616L72.057 5.67785H51.608L45.8366 32.929ZM33.1722 32.929H40.9439L46.7153 5.60219H38.9436L33.1722 32.929ZM10.7721 32.929H18.2815L20.4687 22.56H31.4081L32.5426 17.2967H21.5968L22.9215 10.9379H34.6906L35.8251 5.67785H16.5435L10.7689 32.929H10.7721ZM0 32.9255H7.73233V31.9091H0V26.455H7.73233V25.4385H0V19.8099H7.73233V18.7968H0V13.0729H7.73233V12.0597H0V6.5792H7.73233V5.56271H0V0H150V5.56271H142.274V6.5792H150V12.0597H142.274V13.0729H150V18.7968H142.274V19.8099H150V25.4385H142.274V26.455H150V31.9091H142.274V32.9255H150V38.5377H0V32.9255Z" fill="#005CA8"/>
</g>
</svg>
